<?xml version="1.0" standalone="no"?>
<!DOCTYPE svg PUBLIC "-//W3C//DTD SVG 20010904//EN"
 "http://www.w3.org/TR/2001/REC-SVG-20010904/DTD/svg10.dtd">
<svg version="1.0" xmlns="http://www.w3.org/2000/svg"
 width="500.000000pt" height="500.000000pt" viewBox="0 0 500.000000 500.000000"
 preserveAspectRatio="xMidYMid meet">
<metadata>
Created by potrace 1.14, written by Peter Selinger 2001-2017
</metadata>
<g transform="translate(0.000000,500.000000) scale(0.100000,-0.100000)"
fill="#000000" stroke="none">
<path d="M2357 4614 c-1 -1 -49 -5 -107 -9 -113 -7 -175 -13 -175 -15 0 -2
-36 -9 -80 -15 -61 -8 -69 -10 -80 -16 -5 -4 -18 -5 -27 -4 -10 2 -18 -1 -18
-7 0 -5 -6 -8 -12 -5 -7 2 -36 -4 -65 -14 -28 -9 -54 -15 -57 -12 -3 4 -6 1
-6 -6 0 -7 -6 -11 -14 -8 -7 3 -19 0 -25 -6 -6 -6 -11 -7 -11 -3 0 5 -6 4 -12
-1 -11 -9 -82 -36 -98 -38 -3 0 -12 -5 -20 -10 -8 -5 -21 -10 -28 -11 -7 -1
-31 -12 -53 -23 -22 -12 -46 -21 -54 -21 -8 0 -15 -5 -15 -12 0 -6 -3 -8 -6
-5 -4 4 -20 -3 -35 -14 -16 -11 -29 -18 -29 -14 0 3 -17 -5 -37 -19 -20 -14
-40 -23 -45 -20 -4 3 -8 -2 -8 -10 0 -9 -3 -15 -7 -14 -14 3 -63 -25 -63 -35
0 -6 -3 -8 -6 -4 -3 3 -13 -1 -22 -8 -15 -13 -77 -58 -148 -110 -15 -11 -35
-28 -43 -37 -12 -14 -18 -15 -30 -5 -12 9 -13 9 -7 -1 6 -11 -42 -72 -58 -72
-6 0 -132 -131 -171 -177 -15 -18 -34 -33 -43 -33 -13 0 -14 -2 -4 -8 9 -7 7
-13 -9 -28 -12 -10 -44 -52 -71 -91 -28 -40 -55 -70 -61 -66 -6 3 -7 1 -3 -5
4 -7 -6 -31 -22 -54 -16 -24 -32 -51 -35 -61 -4 -11 -12 -15 -18 -11 -7 4 -9
3 -5 -4 3 -6 -17 -56 -45 -113 -55 -110 -110 -246 -141 -349 -10 -36 -22 -72
-25 -80 -3 -8 -5 -23 -4 -34 2 -10 -2 -15 -7 -12 -6 4 -8 -2 -5 -14 3 -11 0
-26 -6 -33 -6 -8 -9 -16 -6 -19 3 -2 -2 -45 -10 -94 -8 -49 -15 -108 -15 -132
0 -32 -3 -41 -12 -36 -10 6 -10 5 -1 -8 7 -8 11 -17 8 -19 -6 -6 -7 -245 -1
-289 2 -19 7 -60 10 -90 45 -406 210 -798 479 -1135 46 -57 304 -315 316 -315
4 0 23 -14 42 -31 55 -49 249 -175 351 -227 462 -238 975 -318 1486 -231 144
24 247 50 372 95 54 19 108 36 119 37 11 0 18 4 15 8 -5 9 25 21 37 13 5 -3 9
0 9 6 0 7 6 10 14 7 8 -3 17 1 20 9 3 9 10 12 16 9 5 -3 10 -1 10 5 0 6 5 8
10 5 6 -3 10 -1 10 5 0 6 5 8 10 5 6 -3 17 1 26 10 9 9 23 14 31 11 8 -3 11
-1 8 4 -3 6 -1 10 5 10 7 0 25 9 41 21 16 11 29 17 29 13 0 -4 6 0 13 9 6 9
18 17 26 19 14 3 40 21 66 45 9 9 15 9 24 0 9 -9 11 -8 6 6 -4 9 -3 17 2 17 6
0 23 11 39 25 16 14 35 23 42 20 7 -3 11 -1 8 4 -3 4 11 21 32 37 76 59 189
161 237 212 92 98 113 122 137 153 12 17 28 36 33 42 66 76 184 265 244 392
64 135 133 336 157 460 2 11 6 31 9 45 11 50 15 76 20 115 3 22 8 58 11 80 4
22 7 108 8 191 2 82 6 156 11 164 6 9 4 11 -5 5 -10 -6 -12 -1 -8 19 3 14 2
26 -1 26 -4 0 -7 18 -8 40 -1 29 2 38 10 33 7 -4 5 1 -3 12 -8 10 -16 34 -16
54 -1 20 -3 36 -4 36 -3 0 -11 40 -11 57 0 10 -5 20 -10 24 -6 4 -6 11 2 20 7
9 8 14 1 14 -6 0 -11 8 -10 18 0 9 -7 38 -16 65 -8 26 -12 47 -8 47 4 0 0 5
-8 10 -13 9 -13 10 0 10 9 0 11 3 4 8 -11 8 -47 92 -39 92 3 0 -2 11 -11 25
-8 13 -13 28 -10 34 3 5 0 12 -6 14 -10 4 -9 8 2 16 13 9 13 11 -1 11 -13 0
-46 58 -58 102 -13 50 -215 377 -267 433 -11 11 -31 36 -46 56 -94 126 -397
391 -529 462 -13 7 -42 24 -64 38 -43 27 -179 93 -260 127 -230 95 -474 154
-730 178 -55 5 -264 11 -268 8z"/>
<path d="M4713 2793 c0 -9 4 -10 14 -2 7 6 13 12 13 14 0 1 -6 2 -13 2 -8 0
-14 -6 -14 -14z"/>
</g>
</svg>
